# xmcd
#
# Track frame offsets:
#	150
#	16277
#	47020
#	80035
#	98857
#	111697
#	128337
#	144786
#	162256
#	180587
#	195862
#	216043
#
# Disc length: 3088 seconds
#
# Revision: 7
# Processed by: cddbd v1.5.2PL0 Copyright (c) Steve Scherf et al.
# Submitted via: audiograbber 1.83.01
#
DISCID=970c0e0c
DTITLE=Joe Bonamassa - Blues Deluxe
DYEAR=2003
DGENRE=Blues Rock
TTITLE0=You Upset Me Baby
TTITLE1=Burning Hell
TTITLE2=Blues Deluxe
TTITLE3=Man Of Many Words
TTITLE4=Woke Up Dreaming
TTITLE5=I Don't Live Anywhere
TTITLE6=Wild About You Baby
TTITLE7=Long Distance Blues
TTITLE8=Pack It Up
TTITLE9=Left Overs
TTITLE10=Walking Blues
TTITLE11=Mumbling Word
EXTD=Location:  - UPC: 805386022925 - Catalogue number: 60229 - Label: J&R Advent
EXTD=ures - ASIN: B0000AKCLS - Release Date: 2003 - Discogs: a900313,r2775432 - MUS
EXTD=ICBRAINZ_ALBUMID: 12f3497c-e0f9-483a-bc9f-1578830de2a7 - AMG: p57872,r65257
EXTD=5;
EXTT0=
EXTT1=
EXTT2=
EXTT3=
EXTT4=
EXTT5=
EXTT6=
EXTT7=
EXTT8=
EXTT9=
EXTT10=
EXTT11=
PLAYORDER=
